<svg width="122" height="122" viewBox="0 0 122 122" fill="none" xmlns="http://www.w3.org/2000/svg">
<path d="M61 0C56.502 0 52.0036 1.71112 48.5807 5.13403L26.7247 26.9901H27.3846C32.9578 26.9901 38.1772 29.1431 42.1267 33.0926L57.443 48.409C59.4178 50.3399 62.5822 50.3399 64.557 48.409L79.8733 33.0926C83.8228 29.1431 89.0422 26.9901 94.6154 26.9901H95.2753L73.4194 5.13403C69.9964 1.71112 65.4981 0 61 0ZM20.1421 33.5726L5.13436 48.5804C-1.71145 55.4263 -1.71145 66.5734 5.13436 73.4192L20.1421 88.427H27.3846C31.2025 88.427 34.8043 86.9384 37.4812 84.2615L52.7976 68.9451C57.3176 64.4251 64.6824 64.4251 69.2024 68.9451L84.5188 84.2615C87.1957 86.9384 90.7975 88.427 94.6154 88.427H101.858L116.866 73.4192C123.711 66.5734 123.711 55.4263 116.866 48.5804L101.858 33.5726H94.6154C90.7975 33.5726 87.1957 35.0612 84.5188 37.7381L69.2024 53.0545C66.9644 55.2926 63.9841 56.4401 61 56.4401C58.0159 56.4401 55.0356 55.2926 52.7976 53.0545L37.4812 37.7381C34.8043 35.0612 31.2025 33.5726 27.3846 33.5726H20.1421ZM61 72.1421C59.7164 72.1421 58.4304 72.6252 57.443 73.5906L42.1267 88.907C38.1772 92.8565 32.9578 95.0096 27.3846 95.0096H26.7247L48.5807 116.866C55.4265 123.711 66.5735 123.711 73.4194 116.866L95.2753 95.0096H94.6154C89.0422 95.0096 83.8228 92.8565 79.8733 88.907L64.557 73.5906C63.5696 72.6252 62.2836 72.1421 61 72.1421Z" fill="#0BB5F3"/>
</svg>
