<svg width="253" height="166" viewBox="0 0 253 166" fill="none" xmlns="http://www.w3.org/2000/svg">
<path d="M127 0C123.276 0 119.552 1.41658 116.718 4.2503L98.6245 22.3443H99.1709C103.785 22.3443 108.106 24.1267 111.375 27.3964L124.055 40.0763C125.69 41.6748 128.31 41.6748 129.945 40.0763L142.625 27.3964C145.894 24.1267 150.215 22.3443 154.829 22.3443H155.375L137.282 4.2503C134.448 1.41658 130.724 0 127 0ZM93.1751 27.7937L80.7506 40.2182C75.0831 45.8857 75.0831 55.114 80.7506 60.7815L93.1751 73.206H99.1709C102.332 73.206 105.313 71.9736 107.53 69.7575L120.209 57.0775C123.951 53.3356 130.049 53.3356 133.791 57.0775L146.47 69.7575C148.687 71.9736 151.668 73.206 154.829 73.206H160.825L173.249 60.7815C178.917 55.114 178.917 45.8857 173.249 40.2182L160.825 27.7937H154.829C151.668 27.7937 148.687 29.0261 146.47 31.2422L133.791 43.9222C131.938 45.775 129.47 46.725 127 46.725C124.53 46.725 122.062 45.775 120.209 43.9222L107.53 31.2422C105.313 29.0261 102.332 27.7937 99.1709 27.7937H93.1751ZM127 59.7242C125.937 59.7242 124.873 60.1241 124.055 60.9234L111.375 73.6033C108.106 76.873 103.785 78.6555 99.1709 78.6555H98.6245L116.718 96.7494C122.386 102.417 131.614 102.417 137.282 96.7494L155.375 78.6555H154.829C150.215 78.6555 145.894 76.873 142.625 73.6033L129.945 60.9234C129.127 60.1241 128.063 59.7242 127 59.7242Z" fill="#0BB5F3"/>
<g filter="url(#filter0_d_79_7)">
<path d="M13.5682 148L4.02273 113.091H8.31818L15.6136 141.523H15.9545L23.3864 113.091H28.1591L35.5909 141.523H35.9318L43.2273 113.091H47.5227L37.9773 148H33.6136L25.9091 120.182H25.6364L17.9318 148H13.5682ZM60.4432 148.545C58.0795 148.545 56.0057 147.983 54.2216 146.858C52.4489 145.733 51.0625 144.159 50.0625 142.136C49.0739 140.114 48.5795 137.75 48.5795 135.045C48.5795 132.318 49.0739 129.937 50.0625 127.903C51.0625 125.869 52.4489 124.29 54.2216 123.165C56.0057 122.04 58.0795 121.477 60.4432 121.477C62.8068 121.477 64.875 122.04 66.6477 123.165C68.4318 124.29 69.8182 125.869 70.8068 127.903C71.8068 129.937 72.3068 132.318 72.3068 135.045C72.3068 137.75 71.8068 140.114 70.8068 142.136C69.8182 144.159 68.4318 145.733 66.6477 146.858C64.875 147.983 62.8068 148.545 60.4432 148.545ZM60.4432 144.932C62.2386 144.932 63.7159 144.472 64.875 143.551C66.0341 142.631 66.892 141.42 67.4489 139.92C68.0057 138.42 68.2841 136.795 68.2841 135.045C68.2841 133.295 68.0057 131.665 67.4489 130.153C66.892 128.642 66.0341 127.42 64.875 126.489C63.7159 125.557 62.2386 125.091 60.4432 125.091C58.6477 125.091 57.1705 125.557 56.0114 126.489C54.8523 127.42 53.9943 128.642 53.4375 130.153C52.8807 131.665 52.6023 133.295 52.6023 135.045C52.6023 136.795 52.8807 138.42 53.4375 139.92C53.9943 141.42 54.8523 142.631 56.0114 143.551C57.1705 144.472 58.6477 144.932 60.4432 144.932ZM78.4474 148V121.818H82.3338V125.773H82.6065C83.0838 124.477 83.9474 123.426 85.1974 122.619C86.4474 121.812 87.8565 121.409 89.4247 121.409C89.7202 121.409 90.0895 121.415 90.5327 121.426C90.9759 121.437 91.3111 121.455 91.5384 121.477V125.568C91.402 125.534 91.0895 125.483 90.6009 125.415C90.1236 125.335 89.6179 125.295 89.0838 125.295C87.8111 125.295 86.6747 125.562 85.6747 126.097C84.6861 126.619 83.902 127.347 83.3224 128.278C82.7543 129.199 82.4702 130.25 82.4702 131.432V148H78.4474ZM100.057 138.455L99.9886 133.477H100.807L112.261 121.818H117.239L105.034 134.159H104.693L100.057 138.455ZM96.3068 148V113.091H100.33V148H96.3068ZM112.943 148L102.716 135.045L105.58 132.25L118.057 148H112.943ZM135.213 131.159V134.909H119.94V131.159H135.213ZM161.928 121.818C161.723 120.091 160.893 118.75 159.439 117.795C157.984 116.841 156.2 116.364 154.087 116.364C152.541 116.364 151.189 116.614 150.03 117.114C148.882 117.614 147.984 118.301 147.337 119.176C146.7 120.051 146.382 121.045 146.382 122.159C146.382 123.091 146.604 123.892 147.047 124.562C147.501 125.222 148.081 125.773 148.786 126.216C149.49 126.648 150.229 127.006 151.001 127.29C151.774 127.562 152.484 127.784 153.132 127.955L156.678 128.909C157.587 129.148 158.598 129.477 159.712 129.898C160.837 130.318 161.911 130.892 162.933 131.619C163.967 132.335 164.82 133.256 165.49 134.381C166.161 135.506 166.496 136.886 166.496 138.523C166.496 140.409 166.001 142.114 165.013 143.636C164.036 145.159 162.604 146.369 160.717 147.267C158.842 148.165 156.564 148.614 153.882 148.614C151.382 148.614 149.217 148.21 147.388 147.403C145.57 146.597 144.138 145.472 143.092 144.028C142.058 142.585 141.473 140.909 141.337 139H145.7C145.814 140.318 146.257 141.409 147.03 142.273C147.814 143.125 148.803 143.761 149.996 144.182C151.2 144.591 152.496 144.795 153.882 144.795C155.496 144.795 156.945 144.534 158.229 144.011C159.513 143.477 160.53 142.739 161.28 141.795C162.03 140.841 162.405 139.727 162.405 138.455C162.405 137.295 162.081 136.352 161.433 135.625C160.786 134.898 159.933 134.307 158.876 133.852C157.82 133.398 156.678 133 155.45 132.659L151.155 131.432C148.428 130.648 146.268 129.528 144.678 128.074C143.087 126.619 142.291 124.716 142.291 122.364C142.291 120.409 142.82 118.705 143.876 117.25C144.945 115.784 146.376 114.648 148.172 113.841C149.979 113.023 151.996 112.614 154.223 112.614C156.473 112.614 158.473 113.017 160.223 113.824C161.973 114.619 163.359 115.71 164.382 117.097C165.416 118.483 165.962 120.057 166.018 121.818H161.928ZM175.491 157.818C174.81 157.818 174.202 157.761 173.668 157.648C173.134 157.545 172.764 157.443 172.56 157.341L173.582 153.795C174.56 154.045 175.423 154.136 176.173 154.068C176.923 154 177.588 153.665 178.168 153.062C178.759 152.472 179.298 151.511 179.787 150.182L180.537 148.136L170.855 121.818H175.219L182.446 142.682H182.719L189.946 121.818H194.31L183.196 151.818C182.696 153.17 182.077 154.29 181.338 155.176C180.599 156.074 179.741 156.739 178.764 157.17C177.798 157.602 176.707 157.818 175.491 157.818ZM203.642 132.25V148H199.619V121.818H203.506V125.909H203.847C204.46 124.58 205.392 123.511 206.642 122.705C207.892 121.886 209.506 121.477 211.483 121.477C213.256 121.477 214.807 121.841 216.136 122.568C217.466 123.284 218.5 124.375 219.239 125.841C219.977 127.295 220.347 129.136 220.347 131.364V148H216.324V131.636C216.324 129.58 215.79 127.977 214.722 126.83C213.653 125.67 212.188 125.091 210.324 125.091C209.04 125.091 207.892 125.369 206.881 125.926C205.881 126.483 205.091 127.295 204.511 128.364C203.932 129.432 203.642 130.727 203.642 132.25ZM238.334 148.545C235.879 148.545 233.766 147.966 231.993 146.807C230.22 145.648 228.857 144.051 227.902 142.017C226.947 139.983 226.47 137.659 226.47 135.045C226.47 132.386 226.959 130.04 227.936 128.006C228.925 125.96 230.3 124.364 232.061 123.216C233.834 122.057 235.902 121.477 238.266 121.477C240.107 121.477 241.766 121.818 243.243 122.5C244.72 123.182 245.93 124.136 246.874 125.364C247.817 126.591 248.402 128.023 248.629 129.659H244.607C244.3 128.466 243.618 127.409 242.561 126.489C241.516 125.557 240.107 125.091 238.334 125.091C236.766 125.091 235.391 125.5 234.209 126.318C233.038 127.125 232.124 128.267 231.464 129.744C230.817 131.21 230.493 132.932 230.493 134.909C230.493 136.932 230.811 138.693 231.447 140.193C232.095 141.693 233.004 142.858 234.175 143.688C235.357 144.517 236.743 144.932 238.334 144.932C239.379 144.932 240.328 144.75 241.18 144.386C242.033 144.023 242.754 143.5 243.345 142.818C243.936 142.136 244.357 141.318 244.607 140.364H248.629C248.402 141.909 247.839 143.301 246.942 144.54C246.055 145.767 244.879 146.744 243.413 147.472C241.959 148.188 240.266 148.545 238.334 148.545Z" fill="#0BB5F3"/>
</g>
<defs>
<filter id="filter0_d_79_7" x="0.0227356" y="112.614" width="252.607" height="53.2046" filterUnits="userSpaceOnUse" color-interpolation-filters="sRGB">
<feFlood flood-opacity="0" result="BackgroundImageFix"/>
<feColorMatrix in="SourceAlpha" type="matrix" values="0 0 0 0 0 0 0 0 0 0 0 0 0 0 0 0 0 0 127 0" result="hardAlpha"/>
<feOffset dy="4"/>
<feGaussianBlur stdDeviation="2"/>
<feComposite in2="hardAlpha" operator="out"/>
<feColorMatrix type="matrix" values="0 0 0 0 0 0 0 0 0 0 0 0 0 0 0 0 0 0 0.25 0"/>
<feBlend mode="normal" in2="BackgroundImageFix" result="effect1_dropShadow_79_7"/>
<feBlend mode="normal" in="SourceGraphic" in2="effect1_dropShadow_79_7" result="shape"/>
</filter>
</defs>
</svg>
